<mxfile host="app.diagrams.net" agent="Mozilla/5.0 (Windows NT 10.0; Win64; x64) AppleWebKit/537.36 (KHTML, like Gecko) Chrome/136.0.0.0 Safari/537.36" version="26.2.14">
  <diagram name="LVM" id="Ut6gwHITRbPvM9ZYhPMe">
    <mxGraphModel dx="1408" dy="733" grid="0" gridSize="10" guides="1" tooltips="1" connect="1" arrows="1" fold="1" page="1" pageScale="1" pageWidth="2339" pageHeight="3300" math="0" shadow="0">
      <root>
        <mxCell id="0" />
        <mxCell id="1" parent="0" />
        <mxCell id="_Cuo3YtZDDsTVNnbeW_u-15" value="" style="rounded=1;whiteSpace=wrap;html=1;fillColor=#f5f5f5;gradientColor=#b3b3b3;strokeColor=#666666;" vertex="1" parent="1">
          <mxGeometry x="372" y="167" width="450" height="497" as="geometry" />
        </mxCell>
        <mxCell id="_Cuo3YtZDDsTVNnbeW_u-1" value="" style="rounded=1;whiteSpace=wrap;html=1;fillColor=#dae8fc;strokeColor=#6c8ebf;" vertex="1" parent="1">
          <mxGeometry x="431" y="686" width="120" height="60" as="geometry" />
        </mxCell>
        <mxCell id="_Cuo3YtZDDsTVNnbeW_u-2" value="" style="endArrow=none;html=1;rounded=0;exitX=0;exitY=0.25;exitDx=0;exitDy=0;entryX=1;entryY=0.25;entryDx=0;entryDy=0;" edge="1" parent="1" source="_Cuo3YtZDDsTVNnbeW_u-1" target="_Cuo3YtZDDsTVNnbeW_u-1">
          <mxGeometry width="50" height="50" relative="1" as="geometry">
            <mxPoint x="811" y="645" as="sourcePoint" />
            <mxPoint x="861" y="595" as="targetPoint" />
          </mxGeometry>
        </mxCell>
        <mxCell id="_Cuo3YtZDDsTVNnbeW_u-3" value="" style="rounded=1;whiteSpace=wrap;html=1;fillColor=#dae8fc;strokeColor=#6c8ebf;" vertex="1" parent="1">
          <mxGeometry x="631" y="686" width="120" height="60" as="geometry" />
        </mxCell>
        <mxCell id="_Cuo3YtZDDsTVNnbeW_u-4" value="" style="endArrow=none;html=1;rounded=0;exitX=0;exitY=0.25;exitDx=0;exitDy=0;entryX=1;entryY=0.25;entryDx=0;entryDy=0;" edge="1" parent="1" source="_Cuo3YtZDDsTVNnbeW_u-3" target="_Cuo3YtZDDsTVNnbeW_u-3">
          <mxGeometry width="50" height="50" relative="1" as="geometry">
            <mxPoint x="1011" y="645" as="sourcePoint" />
            <mxPoint x="1061" y="595" as="targetPoint" />
          </mxGeometry>
        </mxCell>
        <mxCell id="_Cuo3YtZDDsTVNnbeW_u-5" value="" style="rounded=1;whiteSpace=wrap;html=1;fillColor=#fff2cc;strokeColor=#d6b656;" vertex="1" parent="1">
          <mxGeometry x="431" y="578" width="120" height="60" as="geometry" />
        </mxCell>
        <mxCell id="_Cuo3YtZDDsTVNnbeW_u-6" value="" style="endArrow=none;html=1;rounded=0;exitX=0.5;exitY=0;exitDx=0;exitDy=0;entryX=0.5;entryY=1;entryDx=0;entryDy=0;" edge="1" parent="1" source="_Cuo3YtZDDsTVNnbeW_u-1" target="_Cuo3YtZDDsTVNnbeW_u-5">
          <mxGeometry width="50" height="50" relative="1" as="geometry">
            <mxPoint x="811" y="645" as="sourcePoint" />
            <mxPoint x="861" y="595" as="targetPoint" />
          </mxGeometry>
        </mxCell>
        <mxCell id="_Cuo3YtZDDsTVNnbeW_u-7" value="" style="rounded=1;whiteSpace=wrap;html=1;fillColor=#d5e8d4;strokeColor=#82b366;" vertex="1" parent="1">
          <mxGeometry x="431" y="470" width="322" height="60" as="geometry" />
        </mxCell>
        <mxCell id="_Cuo3YtZDDsTVNnbeW_u-8" value="" style="endArrow=none;html=1;rounded=0;exitX=0.5;exitY=0;exitDx=0;exitDy=0;entryX=0.19;entryY=0.986;entryDx=0;entryDy=0;entryPerimeter=0;" edge="1" parent="1" target="_Cuo3YtZDDsTVNnbeW_u-7">
          <mxGeometry width="50" height="50" relative="1" as="geometry">
            <mxPoint x="491" y="578" as="sourcePoint" />
            <mxPoint x="490" y="545" as="targetPoint" />
          </mxGeometry>
        </mxCell>
        <mxCell id="_Cuo3YtZDDsTVNnbeW_u-9" value="" style="rounded=1;whiteSpace=wrap;html=1;fillColor=#f5f5f5;fontColor=#333333;strokeColor=#666666;" vertex="1" parent="1">
          <mxGeometry x="431" y="362" width="120" height="60" as="geometry" />
        </mxCell>
        <mxCell id="_Cuo3YtZDDsTVNnbeW_u-10" value="" style="endArrow=none;html=1;rounded=0;exitX=0.5;exitY=0;exitDx=0;exitDy=0;entryX=0.5;entryY=1;entryDx=0;entryDy=0;" edge="1" parent="1" target="_Cuo3YtZDDsTVNnbeW_u-9">
          <mxGeometry width="50" height="50" relative="1" as="geometry">
            <mxPoint x="491" y="470" as="sourcePoint" />
            <mxPoint x="861" y="379" as="targetPoint" />
          </mxGeometry>
        </mxCell>
        <mxCell id="_Cuo3YtZDDsTVNnbeW_u-11" value="/dev/sdf" style="text;html=1;align=center;verticalAlign=middle;whiteSpace=wrap;rounded=0;" vertex="1" parent="1">
          <mxGeometry x="461" y="711" width="60" height="30" as="geometry" />
        </mxCell>
        <mxCell id="_Cuo3YtZDDsTVNnbeW_u-12" value="/dev/sdf" style="text;html=1;align=center;verticalAlign=middle;whiteSpace=wrap;rounded=0;" vertex="1" parent="1">
          <mxGeometry x="461" y="593" width="60" height="30" as="geometry" />
        </mxCell>
        <mxCell id="_Cuo3YtZDDsTVNnbeW_u-13" value="" style="rounded=1;whiteSpace=wrap;html=1;fillColor=#f5f5f5;fontColor=#333333;strokeColor=#666666;" vertex="1" parent="1">
          <mxGeometry x="431" y="254" width="120" height="60" as="geometry" />
        </mxCell>
        <mxCell id="_Cuo3YtZDDsTVNnbeW_u-14" value="" style="endArrow=none;html=1;rounded=0;exitX=0.5;exitY=0;exitDx=0;exitDy=0;entryX=0.5;entryY=1;entryDx=0;entryDy=0;" edge="1" parent="1" target="_Cuo3YtZDDsTVNnbeW_u-13">
          <mxGeometry width="50" height="50" relative="1" as="geometry">
            <mxPoint x="491" y="362" as="sourcePoint" />
            <mxPoint x="861" y="271" as="targetPoint" />
          </mxGeometry>
        </mxCell>
        <mxCell id="_Cuo3YtZDDsTVNnbeW_u-19" value="&lt;b&gt;SSD/HDD&lt;/b&gt;" style="text;html=1;align=center;verticalAlign=middle;whiteSpace=wrap;rounded=0;" vertex="1" parent="1">
          <mxGeometry x="341" y="705" width="60" height="30" as="geometry" />
        </mxCell>
        <mxCell id="_Cuo3YtZDDsTVNnbeW_u-20" value="&lt;b&gt;PV&lt;/b&gt;" style="text;html=1;align=center;verticalAlign=middle;whiteSpace=wrap;rounded=0;" vertex="1" parent="1">
          <mxGeometry x="372" y="598" width="60" height="30" as="geometry" />
        </mxCell>
        <mxCell id="_Cuo3YtZDDsTVNnbeW_u-21" value="&lt;b&gt;VG&lt;/b&gt;" style="text;html=1;align=center;verticalAlign=middle;whiteSpace=wrap;rounded=0;" vertex="1" parent="1">
          <mxGeometry x="375" y="485" width="60" height="30" as="geometry" />
        </mxCell>
        <mxCell id="_Cuo3YtZDDsTVNnbeW_u-22" value="LV" style="text;html=1;align=center;verticalAlign=middle;whiteSpace=wrap;rounded=0;" vertex="1" parent="1">
          <mxGeometry x="375" y="382" width="60" height="30" as="geometry" />
        </mxCell>
        <mxCell id="_Cuo3YtZDDsTVNnbeW_u-23" value="&lt;b&gt;FS&lt;/b&gt;" style="text;html=1;align=center;verticalAlign=middle;whiteSpace=wrap;rounded=0;" vertex="1" parent="1">
          <mxGeometry x="378" y="269" width="60" height="30" as="geometry" />
        </mxCell>
        <mxCell id="_Cuo3YtZDDsTVNnbeW_u-24" value="&lt;font style=&quot;font-size: 16px;&quot;&gt;&lt;b&gt;LVM&lt;/b&gt;&lt;/font&gt;" style="text;html=1;align=center;verticalAlign=middle;whiteSpace=wrap;rounded=0;" vertex="1" parent="1">
          <mxGeometry x="461" y="197" width="60" height="30" as="geometry" />
        </mxCell>
        <mxCell id="_Cuo3YtZDDsTVNnbeW_u-25" value="datavg" style="text;html=1;align=center;verticalAlign=middle;whiteSpace=wrap;rounded=0;" vertex="1" parent="1">
          <mxGeometry x="565" y="485" width="60" height="30" as="geometry" />
        </mxCell>
        <mxCell id="_Cuo3YtZDDsTVNnbeW_u-26" value="/dev/datavg/data" style="text;whiteSpace=wrap;html=1;" vertex="1" parent="1">
          <mxGeometry x="445" y="379" width="64" height="36" as="geometry" />
        </mxCell>
        <mxCell id="_Cuo3YtZDDsTVNnbeW_u-27" value="/mnt/data" style="text;whiteSpace=wrap;html=1;" vertex="1" parent="1">
          <mxGeometry x="461" y="269" width="64" height="36" as="geometry" />
        </mxCell>
        <mxCell id="_Cuo3YtZDDsTVNnbeW_u-28" value="&lt;font style=&quot;font-size: 14px;&quot;&gt;Physical Volume&lt;/font&gt;" style="text;html=1;align=center;verticalAlign=middle;whiteSpace=wrap;rounded=0;" vertex="1" parent="1">
          <mxGeometry x="245" y="598" width="106" height="30" as="geometry" />
        </mxCell>
        <mxCell id="_Cuo3YtZDDsTVNnbeW_u-29" value="&lt;font style=&quot;font-size: 14px;&quot;&gt;Volume Group&amp;nbsp;&lt;/font&gt;" style="text;html=1;align=center;verticalAlign=middle;whiteSpace=wrap;rounded=0;" vertex="1" parent="1">
          <mxGeometry x="245" y="485" width="106" height="30" as="geometry" />
        </mxCell>
        <mxCell id="_Cuo3YtZDDsTVNnbeW_u-30" value="&lt;font style=&quot;font-size: 14px;&quot;&gt;&amp;nbsp;Logical Volume&amp;nbsp;&lt;/font&gt;" style="text;html=1;align=center;verticalAlign=middle;whiteSpace=wrap;rounded=0;" vertex="1" parent="1">
          <mxGeometry x="248" y="377" width="106" height="30" as="geometry" />
        </mxCell>
        <mxCell id="_Cuo3YtZDDsTVNnbeW_u-31" value="&lt;span style=&quot;font-size: 14px;&quot;&gt;File system mounted&amp;nbsp;&lt;/span&gt;" style="text;html=1;align=center;verticalAlign=middle;whiteSpace=wrap;rounded=0;" vertex="1" parent="1">
          <mxGeometry x="253" y="260" width="106" height="30" as="geometry" />
        </mxCell>
        <mxCell id="_Cuo3YtZDDsTVNnbeW_u-36" value="" style="rounded=1;whiteSpace=wrap;html=1;fillColor=#fff2cc;strokeColor=#d6b656;" vertex="1" parent="1">
          <mxGeometry x="631" y="583" width="120" height="60" as="geometry" />
        </mxCell>
        <mxCell id="_Cuo3YtZDDsTVNnbeW_u-37" value="/dev/sdf" style="text;html=1;align=center;verticalAlign=middle;whiteSpace=wrap;rounded=0;" vertex="1" parent="1">
          <mxGeometry x="661" y="711" width="60" height="30" as="geometry" />
        </mxCell>
        <mxCell id="_Cuo3YtZDDsTVNnbeW_u-38" value="/dev/sdg" style="text;html=1;align=center;verticalAlign=middle;whiteSpace=wrap;rounded=0;" vertex="1" parent="1">
          <mxGeometry x="661" y="598" width="60" height="30" as="geometry" />
        </mxCell>
        <mxCell id="_Cuo3YtZDDsTVNnbeW_u-40" value="" style="endArrow=none;html=1;rounded=0;entryX=0.5;entryY=1;entryDx=0;entryDy=0;exitX=0.5;exitY=0;exitDx=0;exitDy=0;" edge="1" parent="1" source="_Cuo3YtZDDsTVNnbeW_u-3" target="_Cuo3YtZDDsTVNnbeW_u-36">
          <mxGeometry width="50" height="50" relative="1" as="geometry">
            <mxPoint x="735" y="574" as="sourcePoint" />
            <mxPoint x="785" y="524" as="targetPoint" />
          </mxGeometry>
        </mxCell>
        <mxCell id="_Cuo3YtZDDsTVNnbeW_u-41" value="" style="endArrow=none;html=1;rounded=0;exitX=0.5;exitY=0;exitDx=0;exitDy=0;" edge="1" parent="1" source="_Cuo3YtZDDsTVNnbeW_u-36">
          <mxGeometry width="50" height="50" relative="1" as="geometry">
            <mxPoint x="706" y="564" as="sourcePoint" />
            <mxPoint x="691" y="530" as="targetPoint" />
          </mxGeometry>
        </mxCell>
      </root>
    </mxGraphModel>
  </diagram>
</mxfile>
